<?xml version="1.0" encoding="utf-8"?>
<!-- Generator: Adobe Illustrator 23.0.1, SVG Export Plug-In . SVG Version: 6.00 Build 0)  -->
<svg version="1.1" id="Layer_1" xmlns="http://www.w3.org/2000/svg" xmlns:xlink="http://www.w3.org/1999/xlink" x="0px" y="0px"
	 viewBox="0 0 1000 1000" style="enable-background:new 0 0 1000 1000;" xml:space="preserve">
<style type="text/css">
	.st0{fill:#FFD300;}
	.st1{fill:#FFFFFF;}
	.st2{fill:#602F17;}
</style>
<rect x="129.7" y="130" class="st0" width="740.5" height="740.5"/>
<g>
	<path class="st1" d="M819.8,482.9l-10.8-19.6l-3.3-6c1.9-2.3,3.5-4.7,5.1-7.2c4.3-7.2,6.9-15.2,7.7-23.7c0.8-8.7-0.3-17.6-3.3-25.8
		c-3.1-8.4-8-16-14.3-21.8c-11.9-11.1-26.4-16.7-43.1-16.7c0,0,0,0,0,0c-0.1,0-0.3,0-0.4,0L631,362c-8.6,0-16.1,5.2-19.4,12.6
		c-1.3-0.9-2.6-1.8-4-2.7c-12.8-8.1-26.9-12.2-41.8-12.2c-4.6,0-9.3,0.4-14,1.2c-13.9,2.3-26,7.6-36.1,15.8
		c-2.9-8.3-10.8-14.2-20-14.2H468c-8.3,0-15.5,4.8-19,11.8l-2.1-2.9c-4-5.6-10.4-9-17.4-9l-66.7-0.3c-6,0-11.4,2.5-15.3,6.5
		c-3.9-4-9.3-6.5-15.3-6.5l-72.8,0.4c-6,0-11.4,2.5-15.2,6.4c-3.9-4-9.3-6.5-15.3-6.5h-27.5c-11.7,0-21.2,9.5-21.2,21.2V493
		c0,8.2,4.6,15.3,11.4,18.8c-5.9,8.8-10.3,21.2-8.3,38c1.1,9.1,4.5,17.3,10,24.3c-1.1,0.6-2.2,1.3-3.3,1.9c0,0,0,0,0,0
		c-0.1,0-0.2,0.1-0.2,0.1l-0.9,0.5c-9.2,5.3-13.1,16.5-9.1,26.4l0.6,1.6c0,0.1,0,0.1,0.1,0.2c5.9,14.2,16,25.1,29.3,31.3
		c10.9,5.2,22.3,7.8,33.8,7.8c10.2,0,20.4-2,30.4-6.1c7.2-2.9,13.4-7.1,18.5-12.4c1.9-2,3.6-4.1,5.2-6.4v0.9
		c0,11.7,9.5,21.2,21.2,21.2h71.9c9.4,0,17.7-4.8,20.4-13.9l0.9-4.3l4.1-0.9l1.9,5.9c2.9,8.7,11,13.3,20.2,13.3h73.6
		c8.2,0,15.4-4.7,18.9-11.5c3.5,6.9,10.7,11.6,18.9,11.6h27.6c9.6,0,17.6-6.3,20.3-15c5.5,4.5,11.6,8.2,18.2,11
		c9.7,4.2,19.9,6.4,30.3,6.5c0.3,0,0.6,0,0.9,0c10.6,0,20.8-2.1,30.5-6.1c5.8-2.4,11.2-5.5,16.3-9.3c1.1,2.5,2.6,4.8,4.5,6.7
		c4,4,9.4,6.2,15,6.2h28c8.4,0,15.6-4.8,19-11.8l1.9,2.7c4,5.7,10.5,9.1,17.4,9.1c0,0,0,0,0,0l21.4,0c11.7,0,21.2-9.5,21.2-21.2
		V510.3c0-3-0.6-5.8-1.7-8.4C823.2,495.9,823,488.8,819.8,482.9z"/>
</g>
<g>
	<path class="st2" d="M593.4,488.8c13.2-6.4,21.7-17.1,25.8-31.2c2.6-9,2.3-18.2,0.7-27.3c-0.5-3-1-5.9-1.5-9l-54.2,9l3.9,23.8
		c8.8-1.5,17.3-2.9,26.1-4.3c-1.7,6.9-5.5,11.8-11.5,14.9c-6.3,3.2-13.1,4.4-20.2,4c-5.7-0.3-11-2.2-15.4-5.9
		c-10.2-8.8-13.5-20.1-10.4-32.8c4.2-17.7,20.9-23.3,34.5-21.3c5.6,0.8,10.6,3.2,14.6,7.5c7-5.8,14-11.5,21.1-17.3
		c-3.2-3.6-6.6-6.6-10.5-9c-12.6-8-26.3-10.5-41-8.1c-12.5,2.1-23.5,7.4-32.1,16.9c-12.8,14.1-17.7,30.6-14.5,49.4
		c3.7,21.5,15.8,36.6,36.2,44.2C561.3,498.3,577.8,496.3,593.4,488.8z"/>
	<path class="st2" d="M647.4,507.7c-31.1-0.2-58,24.8-57.6,57.3c-0.5,32.8,26.4,57.2,56.4,57.5c31.9,0.4,57.7-25.3,58.1-56.6
		C704.7,533.2,678.3,507.9,647.4,507.7z M647.1,595c-17,0.1-29.4-12.4-29.5-29.6c-0.1-17.4,12.2-30,29.4-30.1
		c17,0,29.4,12.4,29.5,29.7C676.6,582.3,664.2,594.9,647.1,595z"/>
	<path class="st2" d="M435.9,493.3v-55.2l38.4,55.2l21.4,0V383.5H468V438l-38.4-54.6h-21.7c0,0,0,74.5,0,110H435.9z"/>
	<path class="st2" d="M741.9,459.3l10.4-1.5l18.9,35.3c0,0,29.3,0,30,0c-7.5-13.6-15-27.1-22.4-40.6c0.6-0.4,1.1-0.7,1.6-1
		c22.5-14.3,20.8-43.5,5.9-57.3c-8.2-7.7-17.9-11-29-11l-43,0V493h27.6L741.9,459.3z M742.1,409.1l15.4,0c6,0,10.3,3.4,11.6,8.8
		c1.5,6.5-0.8,12.5-6.4,14.9c-2.6,1.1-5.6,1.5-8.5,2c-3.8,0.6-7.7,1-12.1,1.5V409.1z"/>
	<polygon class="st2" points="259.6,383.4 259.6,424.5 229.1,430 229.1,383.4 201.5,383.4 201.5,493 229.1,493 229.1,455.1 
		259.6,449.6 259.6,493 287.2,493 287.1,383.4 	"/>
	<path class="st2" d="M395.3,510.2l-35.1,111.2h30.5l6.3-21.4l32.3-5.8l8.9,27.2h29l-36.4-111.2H395.3z M404.8,573.4l8.8-30.3
		l8.2,27.4C416.2,571.5,410.7,572.4,404.8,573.4z"/>
	<path class="st2" d="M305,463.5c2,13.7,10,23,22.5,28.3c10.3,4.4,21,4.7,31.8,2.7c5.4-1,10.4-3,15-6c11.5-7.5,16.6-18.4,16.6-31.9
		v-73.5H363l0,70.6c0,1.3-0.1,2.6-0.2,3.9c-0.7,5.2-3.6,8.6-8.7,9.9c-4.2,1.1-8.4,1.1-12.5,0c-5.1-1.3-8-4.7-8.8-9.8
		c-0.2-1.4-0.3-2.8-0.3-4.2l0-70.5h-27.9l0,73.9C304.5,459.1,304.7,461.4,305,463.5z"/>
	<polygon class="st2" points="701,466.9 658.8,466.9 658.8,450.4 696.3,450.4 696.3,424.5 658.9,424.5 658.9,409.2 700.4,409.2 
		700.4,383.2 631,383.2 631,493.3 701,493.3 	"/>
	<path class="st2" d="M275.1,564.8c-3.3-2.2-6.7-4.3-10.4-5.8c-5.3-2.2-10.9-3.9-16.3-5.9c-4-1.5-8.1-3.1-12-4.9
		c-2-0.9-3.6-2.6-4.1-4.9c-1-4,1.6-7.5,6.1-8.5c7.7-1.6,14.8,1.4,18.9,8.2c0.7,1.1,1.3,2.3,2,3.6c7.8-4.6,15.4-9.1,23.2-13.7
		c-2.7-6.7-8.1-13.3-14.2-17.4c-11-7.4-23.1-9-35.8-6.7c-6.8,1.2-12.8,4.2-17.9,8.9c-8.8,8-11.4,18.2-10,29.6
		c1,8.3,5,14.7,11.8,19.5c5.3,3.8,11,6.5,17.2,8.5c5.3,1.7,10.6,3.2,15.8,5.1c2.3,0.8,4.5,2.1,6.3,3.7c3.4,3.1,2.5,8.2-1.7,10.1
		c-1.7,0.8-3.7,1.2-5.6,1.4c-10.9,1.2-19.5-2.6-24.5-13.1c-0.2-0.4-0.4-0.7-0.6-1.2c-0.5,0.2-0.9,0.4-1.3,0.7
		c-7,4.1-14.3,8.4-21.4,12.5c0,0,0,0,0,0l-1.2,0.7l0.6,1.6c3.8,9.1,9.9,16.1,18.7,20.2c15.5,7.3,31.4,7.6,47.3,1.2
		c8.6-3.5,14.9-9.8,17.8-18.9c2.3-7.3,2.3-14.7,0.1-22.1C282.4,572,279.5,567.7,275.1,564.8z"/>
	<polygon class="st2" points="457.1,537.4 483.9,537.4 483.9,620 511.8,620 511.8,537.3 538.6,537.3 538.6,510.3 457.1,510.3 	"/>
	<rect x="549.6" y="510.2" class="st2" width="27.6" height="109.7"/>
	<path class="st2" d="M773.3,564.8l-38.4-54.6h-21.7c0,0,0,74.5,0,110h28v-55.2l38.4,55.2l21.4,0V510.3h-27.6V564.8z"/>
	<polygon class="st2" points="373.5,510.3 292,510.3 292,537.4 318.8,537.4 318.8,620 346.7,620 346.7,537.3 373.5,537.3 	"/>
</g>
</svg>
