<?xml version="1.0" encoding="utf-8"?>
<!-- Generator: Adobe Illustrator 23.0.4, SVG Export Plug-In . SVG Version: 6.00 Build 0)  -->
<svg version="1.1" id="Layer_1" xmlns="http://www.w3.org/2000/svg" xmlns:xlink="http://www.w3.org/1999/xlink" x="0px" y="0px"
	 viewBox="0 0 1000 1000" style="enable-background:new 0 0 1000 1000;" xml:space="preserve">
<style type="text/css">
	.st0{fill:url(#SVGID_1_);}
	.st1{fill:#7B868C;}
	.st2{fill:#1DCAD3;}
</style>
<g>
	<g>
		<linearGradient id="SVGID_1_" gradientUnits="userSpaceOnUse" x1="99.7976" y1="500" x2="475.953" y2="500">
			<stop  offset="0" style="stop-color:#F3E500"/>
			<stop  offset="1" style="stop-color:#1DCAD3"/>
		</linearGradient>
		<path class="st0" d="M438.8,494.3c-0.5,0-1,0-1.5,0l-17.4-59.5c16.9-8.8,27.7-26.5,27.7-45.6c0-28.4-23.1-51.4-51.4-51.4
			c-28.4,0-51.4,23.1-51.4,51.4c0,16.8,8.1,32.3,21.7,41.9l-75.3,167.7c-2.2-0.2-4.3-0.2-6.5,0l-75.3-167.7
			C223,421.5,231,406,231,389.2c0-28.4-23.1-51.4-51.4-51.4c-28.4,0-51.4,23.1-51.4,51.4c0,19,10.7,36.6,27.4,45.5l-17.9,59.6
			c-0.3,0-0.5,0-0.7,0c-20.5,0-37.1,16.7-37.1,37.1c0,20.5,16.7,37.1,37.1,37.1c20.5,0,37.1-16.7,37.1-37.1
			c0-12.8-6.6-24.6-17.3-31.4l17.9-59.6c5.6,0.6,11.1,0.2,16.5-1.1l75.3,167.7c-6.6,6-10.3,14.4-10.3,23.4
			c0,17.5,14.2,31.7,31.7,31.7c17.5,0,31.7-14.2,31.7-31.7c0-9-3.7-17.4-10.3-23.4l75.3-167.7c5.3,1.2,10.6,1.6,16.2,1.1l17.6,60
			c-10.3,6.9-16.7,18.5-16.7,31c0,20.5,16.7,37.1,37.1,37.1c20.5,0,37.1-16.7,37.1-37.1C476,510.9,459.3,494.3,438.8,494.3z
			 M136.9,548.6c-9.5,0-17.2-7.7-17.2-17.2c0-9.5,7.7-17.2,17.2-17.2c9.5,0,17.2,7.7,17.2,17.2C154.2,540.9,146.4,548.6,136.9,548.6
			z M211.1,389.2c0,17.4-14.1,31.5-31.5,31.5s-31.5-14.1-31.5-31.5c0-17.4,14.1-31.5,31.5-31.5S211.1,371.8,211.1,389.2z
			 M299.7,630.5c0,6.5-5.3,11.8-11.8,11.8c-6.5,0-11.8-5.3-11.8-11.8c0-6.5,5.3-11.8,11.8-11.8C294.4,618.6,299.7,623.9,299.7,630.5
			z M427.7,389.2c0,17.4-14.1,31.5-31.5,31.5c-17.4,0-31.5-14.1-31.5-31.5c0-17.4,14.1-31.5,31.5-31.5
			C413.5,357.7,427.7,371.8,427.7,389.2z M456,531.4c0,9.5-7.7,17.2-17.2,17.2c-9.5,0-17.2-7.7-17.2-17.2c0-9.5,7.7-17.2,17.2-17.2
			C448.3,514.2,456,521.9,456,531.4z"/>
		<g>
			<g>
				<path class="st1" d="M871.7,402.3h-8.9c-6.2,0-11.2,5-11.2,11.2V448h-33.7c-0.1,0-0.1,0-0.2,0v-40.7c0-3.1-2.5-5.6-5.6-5.6
					c-3.1,0-5.6,2.5-5.6,5.6v56.4c0,6-4.8,10.8-10.8,10.8h-5.4c-3.1,0-5.6,2.5-5.6,5.6c0,3.1,2.5,5.6,5.6,5.6h5.4
					c12.2,0,22.1-9.9,22.1-22.1v-4.4c0.1,0,0.1,0,0.2,0h53.8c15.7,0,28.5-12.8,28.5-28.5C900.2,415.1,887.4,402.3,871.7,402.3z
					 M871.7,448h-8.8v-34.4h8.8c9.5,0,17.2,7.7,17.2,17.2C888.9,440.3,881.2,448,871.7,448z"/>
				<path class="st1" d="M795.2,432.3v-25c0-3.1-2.5-5.6-5.6-5.6c-3.1,0-5.6,2.5-5.6,5.6v25c0,8.7-7,15.7-15.7,15.7H768
					c-2.6,0-4.6-2.1-4.6-4.6v-11.1v-25c0-3.1-2.5-5.6-5.6-5.6c-3.1,0-5.6,2.5-5.6,5.6v25c0,8.7-7,15.7-15.7,15.7h-4.9v-40.7
					c0-3.1-2.5-5.6-5.6-5.6s-5.6,2.5-5.6,5.6V448h-75.4v-34.5c0-6.2-5-11.2-11.2-11.2h-8.9c-15.7,0-28.5,12.8-28.5,28.5
					c0,15.7,12.8,28.5,28.5,28.5h8.8v4.4c0,6-4.8,10.8-10.8,10.8h-5.4c-3.1,0-5.6,2.5-5.6,5.6c0,3.1,2.5,5.6,5.6,5.6h5.4
					c12.2,0,22.1-9.9,22.1-22.1v-4.4h93.1c0.4,0,0.8-0.1,1.2-0.1c6-0.6,11.4-3.2,15.6-7.1c2.9,4.3,7.8,7.2,13.3,7.2h0.2
					C783.1,459.3,795.2,447.2,795.2,432.3z M633.4,439.2v8.9h-8.8c-9.5,0-17.2-7.7-17.2-17.2c0-9.5,7.7-17.2,17.2-17.2h8.8V439.2z"
					/>
				<path class="st1" d="M579.3,379.7c-3.1,0-5.6,2.5-5.6,5.6v68.3c0,10.6-8.6,19.1-19.1,19.1c-10.6,0-19.1-8.6-19.1-19.1
					c0-10.6,8.6-19.1,19.1-19.1c3.1,0,5.6-2.5,5.6-5.6c0-3.1-2.5-5.6-5.6-5.6c-16.8,0-30.4,13.7-30.4,30.4
					c0,16.8,13.7,30.4,30.4,30.4c16.8,0,30.4-13.7,30.4-30.4v-68.3C584.9,382.3,582.4,379.7,579.3,379.7z"/>
			</g>
			<path class="st1" d="M708.8,388c-1.3-2-3.3-3.5-5.7-4c-2.4-0.5-4.8-0.1-6.8,1.2c-2,1.3-3.5,3.3-4,5.7c-0.5,2.4-0.1,4.8,1.2,6.8
				c1,1.5,2.3,2.7,3.8,3.4l-9.3,5.9c-1,0.6-1.3,1.9-0.7,2.9c0.4,0.6,1.1,1,1.8,1c0.4,0,0.8-0.1,1.1-0.3l15.3-9.6
				c0.1,0,0.1-0.1,0.2-0.1c0.1-0.1,0.2-0.1,0.3-0.2c2-1.3,3.5-3.3,4-5.7C710.5,392.5,710.1,390.1,708.8,388z M696.4,391.7
				c0.3-1.3,1.1-2.4,2.2-3.1c0.8-0.5,1.7-0.8,2.6-0.8c0.4,0,0.7,0,1.1,0.1c1.3,0.3,2.4,1.1,3.1,2.2c0.7,1.1,0.9,2.4,0.6,3.7
				c-0.3,1.3-1.1,2.4-2.2,3.1c-2.3,1.4-5.3,0.7-6.7-1.5C696.3,394.3,696.1,393,696.4,391.7z"/>
			<g>
				<path class="st1" d="M529.7,568.6L529.7,568.6c-3.1,0-5.7-2.5-5.7-5.7v-56.4c0-4.2,3.4-7.6,7.6-7.6l0,0c3.1,0,5.8,1.8,7,4.7
					l17.2,40.7l17.4-40.6c1.2-2.8,4-4.7,7.1-4.7l0,0c4.3,0,7.7,3.5,7.7,7.7v56.3c0,3.2-2.6,5.7-5.7,5.7l0,0c-3.2,0-5.7-2.6-5.7-5.7
					v-26.3l1.2-18.9l-15.6,37.2c-1.1,2.5-3.5,4.1-6.2,4.1l0,0c-2.7,0-5.2-1.6-6.2-4.1l-15.6-37.4l1.1,19.3v26.3
					C535.4,566,532.8,568.6,529.7,568.6z"/>
				<path class="st1" d="M689.9,527.1c12.2,2.3,25.8,6.7,24.8,23.1c-0.6,13.3-13.3,19.5-26,19.5c-8.5,0-16.9-3.6-22.5-10.8
					c-2.3-2.9-1.1-7.2,2.2-8.7l0,0c2.4-1.1,5.2-0.5,6.8,1.6c3.4,4.4,8.5,6.7,13.6,6.7c7.1,0,13.9-3.1,14.3-9.2
					c0.6-7.9-7.2-9.9-15.8-11.2c-11.7-1.8-23.5-7.2-23.6-21.1c0.8-12.7,12.8-19.3,25-19.3c8.2,0,16.1,2.5,21.4,9
					c2.4,2.9,1.2,7.2-2.2,8.7l0,0c-2.3,1-5,0.4-6.6-1.6c-3.1-3.9-7.6-5.5-12.7-5.5c-6.8,0-13.2,3.2-13.6,9.1
					C674.7,523.4,682.5,525.7,689.9,527.1z"/>
				<path class="st1" d="M751.2,497.2c14.1,0,28.3,7.5,28.3,22.6v27.7c0,15.1-14.2,22.7-28.3,22.7c-14.2,0-28.2-7.6-28.2-22.7v-27.7
					C723.1,504.7,737,497.2,751.2,497.2z M734.4,547.5c0,7.5,8.4,11.3,16.8,11.3c8.6,0,16.8-3.8,16.9-11.3v-27.7
					c0-8-8.5-11.3-16.9-11.3c-8.5,0.1-16.8,3.5-16.8,11.3V547.5z"/>
				<path class="st1" d="M818.4,497.2c14.1,0,28.3,7.5,28.3,22.6v27.7c0,15.1-14.2,22.7-28.3,22.7c-14.2,0-28.2-7.6-28.2-22.7v-27.7
					C790.2,504.7,804.2,497.2,818.4,497.2z M801.6,547.5c0,7.5,8.4,11.3,16.8,11.3c8.6,0,16.8-3.8,16.9-11.3v-27.7
					c0-8-8.5-11.3-16.9-11.3c-8.5,0.1-16.8,3.5-16.8,11.3V547.5z"/>
				<path class="st1" d="M894.5,568.6h-32.6c-2.7,0-4.8-2.2-4.8-4.8v-59.2c0-3.1,2.5-5.7,5.7-5.7l0,0c3.1,0,5.7,2.5,5.7,5.7v52.7
					h26.1c3.2,0,5.7,2.6,5.7,5.7l0,0C900.2,566,897.6,568.6,894.5,568.6z"/>
				<path class="st1" d="M614,530.7v-20.5h17.7c7.6-0.2,12.9,2.5,12.9,10.2c0,7.8-5,11.1-12.9,11.1h-7.9c-2.9,0-4.5,3.3-2.7,5.6
					l22.6,29.2c1.2,1.5,3,2.3,5,2.1c4.2-0.5,6.1-5.6,3.5-9l-14.5-18.4c10.6-1.5,18.4-7.7,18.4-20.8c-0.4-15.4-10.7-21.6-24.4-21.6
					h-24.2c-2.7,0-4.8,2.2-4.8,4.8v58.9c0,3,2.2,5.6,5.2,5.9c3.4,0.3,6.3-2.3,6.3-5.7v-21.3V530.7z"/>
			</g>
		</g>
	</g>
	<g>
		<g>
			<path class="st2" d="M542.9,651.4h-5c-1.8,6.8-6.3,10.3-13.9,10.8v-4.4c6.1,0,9.2-3.4,9.2-11.1v-25.1h4.6v25.3h5V651.4z
				 M537.9,616.8h-4.7v-5.6h4.7V616.8z"/>
			<path class="st2" d="M583.9,651.4h-42.5v-4.5h11.3c-2-2.4-3-5.4-3-9.1c0-7.3,4.7-12.8,11.9-12.8c7,0,11.6,5.1,11.6,12.8
				c0,3.7-1.1,6.7-3.1,9.1h9.7c0.4-1.7,0.6-3.5,0.6-5.3c0-11-7-19.2-15.5-21.6v-4.7c5.1,0.9,11.8,5.4,15.3,10.6
				c3.1,4.5,4.7,10.1,4.7,16.7C584.9,645.4,584.6,648.3,583.9,651.4z M568.5,637.5c0-5.7-2.4-8.7-6.7-8.7c-4.7,0-7.3,3.4-7.3,9.3
				c0,5.1,2.6,8.8,7,8.8C566.2,646.8,568.5,643.7,568.5,637.5z"/>
			<path class="st2" d="M608.2,651.4H603c-2.4,0-4.3-0.9-6-2.5c-1.9-1.8-2.8-4.5-2.8-8v-32.1h4.7v29.4c0,3,0.5,5.2,1.3,6.5
				c0.7,1.1,2,1.8,3.8,2c0.5,0.1,1,0.1,4.2,0.1V651.4z"/>
			<path class="st2" d="M652.2,644.8v6.6h-45.6v-4.6h40c0.1-0.9,0.1-1.6,0.1-2.4c0-11.1-5.9-17.5-16.2-17.5c-5.6,0-9.7,2.2-12.4,6.5
				c-0.7-0.7-2-2-4-4.1c3.8-4.7,9.1-7,16.3-7C643.6,622.4,652.2,631.1,652.2,644.8z M634.1,661.4h-4.7v-5.6h4.7V661.4z"/>
			<path class="st2" d="M728.6,651.4h-40.8c-12.6,0-19-6.4-19-19.2v-10.8h4.6v10.8c0,9.8,4.7,14.5,14,14.5h19.1c4.8,0,6.5-1.9,6.5-9
				v-29h4.6v31c0,2.8-0.4,5.2-1.3,7h12.2V651.4z M701.2,621.1l-3.3,0.3c-0.3-1.8-1.3-2.8-3-2.8c-2.2,0-3.3,1.4-3.3,4.3
				c0,1.2,0.3,2.2,0.8,2.9h8.7v3.2h-15.5v-3.2h3.2c-0.3-0.9-0.5-1.8-0.5-2.8c0-4.3,2.4-7.1,6.6-7.1
				C698.3,615.9,700.5,617.6,701.2,621.1z"/>
			<path class="st2" d="M742.7,608.8v31c0,7.7-3.2,11.6-9.7,11.6h-5.7v-4.5h4.2c2.8,0,4.7-0.9,5.6-2.8c0.7-1.2,1-3.3,1-6.3v-29
				H742.7z"/>
			<path class="st2" d="M783.3,651.4h-9.1c-1.3,6.8-5.8,10.3-13.4,10.8v-4.4h0.6c4.2,0,6.9-2.2,8-6.4h-7.2c-3.7,0-6.7-1.4-9.1-4.2
				c-2.4-2.8-3.6-6.4-3.6-10.7c0-4.3,1.3-7.8,3.8-10.7c2.6-2.9,5.7-4.3,9.5-4.3c7.3,0,11.8,4.5,11.8,13.2v12.2h8.6V651.4z
				 M770,646.8v-13.9c0-1.9-0.6-3.6-1.8-4.9c-1.3-1.5-3.2-2.3-5.6-2.3c-2.5,0-4.5,1.2-6.1,3.5c-1.4,2-2.1,4.3-2.1,6.8
				c0,2.6,0.6,5,1.8,7c1.5,2.5,3.6,3.8,6.1,3.8L770,646.8z"/>
			<path class="st2" d="M834.9,621.5v18.3c0,7.7-3.2,11.6-9.7,11.6h-43.6v-4.6h6.1c4.2,0,6.5-2.8,7-8.4v-16.8h4.6v18.3
				c0,2.7-0.4,4.9-1.1,6.7v0.3h8.6c4.2,0,5.6-2,5.6-9v-16.3h4.6v18.3c0,2.8-0.4,5.2-1.3,7h7.9c4.9,0,6.6-2,6.6-9v-16.3H834.9z"/>
			<path class="st2" d="M864.5,651.4h-11.3c-1.3,6.8-5.7,10.3-13.4,10.8v-4.4c6.1,0,9.2-3.4,9.2-11.1v-25.1h4.6v25.3h10.9V651.4z"/>
			<path class="st2" d="M900.2,642.2c0,4.3-1.2,7.8-3.6,10.5c-2.5,3-5.9,4.4-10.1,4.4c-5.1,0-8.9-1.9-11.4-5.7h-12.7v-4.6h10.8
				c-0.4-1.4-0.6-2.9-0.6-4.5c0-4.3,1.3-7.9,3.8-10.7s5.9-4.2,10.2-4.2c4.3,0,7.7,1.4,10.1,4.3C899.1,634.3,900.2,637.9,900.2,642.2
				z M894.9,641.7c0-3-0.6-5.3-1.7-7.1c-1.4-2.2-3.6-3.2-6.3-3.2c-3,0-5.3,1.2-6.8,3.5c-1.3,1.9-1.9,4.4-1.9,7.6
				c0,3,0.7,5.4,1.9,7.2c1.5,2.2,3.7,3.2,6.5,3.2C892.1,653,894.9,649.2,894.9,641.7z"/>
		</g>
	</g>
</g>
</svg>
